<svg xmlns="http://www.w3.org/2000/svg" version="1.1" xmlns:xlink="http://www.w3.org/1999/xlink" xmlns:svgjs="http://svgjs.dev/svgjs" width="100%" height="100%" viewBox="0 0 1000 600"><rect width="1000" height="600" x="0" y="0" fill="#ff1493"/><g><rect width="333.3333333333333" height="333.3333333333333" rx="13.333333333333334" ry="13.333333333333334" y="396.0893227884422" fill="#4831d4" transform="matrix(0.3343434015827764,0,0,0.3343434015827764,0,111.84624312282239)" x="373.8670959472656"/><path d="M477.34690209799703 635.6730662582725L477.34690209799703 635.6730662582725L477.34690209799703 489.9281739305814Q477.34690209799703 487.7559858660813 479.4298221598464 487.7559858660813L479.4298221598464 487.7559858660813L494.48635860692923 487.7559858660813Q500.88389879689527 487.7559858660813 505.1687629241283 494.24279405869805L505.1687629241283 494.24279405869805L584.4685052788234 612.01704555584L584.4685052788234 489.9281739305814Q584.4685052788234 487.7559858660813 586.5514253406728 487.7559858660813L586.5514253406728 487.7559858660813L601.6079617877557 487.7559858660813Q603.7206378504886 487.7559858660813 603.7206378504886 489.9281739305814L603.7206378504886 489.9281739305814L603.7206378504886 635.6730662582725Q603.7206378504886 637.7559863201218 601.6079617877557 637.7559863201218L601.6079617877557 637.7559863201218L586.5514253406728 637.7559863201218Q580.1836411515903 637.7559863201218 575.8690210234738 631.3882021310394L575.8690210234738 631.3882021310394L496.5990346696622 513.4651706294796L496.5990346696622 635.6730662582725Q496.5990346696622 637.7559863201218 494.48635860692923 637.7559863201218L494.48635860692923 637.7559863201218L479.4298221598464 637.7559863201218Q477.34690209799703 637.7559863201218 477.34690209799703 635.6730662582725Z " fill="#800080" transform="matrix(0.3343434015827764,0,0,0.3343434015827764,0,111.84624312282239)"/><path d="M790.5337726976619 605.9356841847814L790.5337726976619 605.9356841847814L790.5337726976619 491.9226666211934Q790.5337726976619 490.22341176571325 792.163195161821 490.22341176571325L792.163195161821 490.22341176571325L803.9415918313138 490.22341176571325Q808.9462465426595 490.22341176571325 812.2982013260724 495.29789886838006L812.2982013260724 495.29789886838006L874.332642282986 587.4301004846891L874.332642282986 491.9226666211934Q874.332642282986 490.22341176571325 875.962064747145 490.22341176571325L875.962064747145 490.22341176571325L887.7404614166377 490.22341176571325Q889.3931613445706 490.22341176571325 889.3931613445706 491.9226666211934L889.3931613445706 491.9226666211934L889.3931613445706 605.9356841847814Q889.3931613445706 607.5651066489406 887.7404614166377 607.5651066489406L887.7404614166377 607.5651066489406L875.962064747145 607.5651066489406Q870.9806874995729 607.5651066489406 867.6054552523863 602.5837294013684L867.6054552523863 602.5837294013684L805.5942917592465 510.33514046619104L805.5942917592465 605.9356841847814Q805.5942917592465 607.5651066489406 803.9415918313138 607.5651066489406L803.9415918313138 607.5651066489406L792.163195161821 607.5651066489406Q790.5337726976619 607.5651066489406 790.5337726976619 605.9356841847814ZM925.6827273677706 602.4440646187263Q916.2320770756479 594.8090565009522 916.2320770756479 581.5874570774902Q916.2320770756479 568.3658576540279 925.9155020055075 560.7075720724802Q935.622204399141 553.0725639547063 953.0570247656431 553.0725639547063L953.0570247656431 553.0725639547063L981.6184728159743 553.0725639547063L981.6184728159743 552.234575258853Q981.6184728159743 527.1181918470295 956.408979549056 527.1181918470295L956.408979549056 527.1181918470295Q948.541196793545 527.1181918470295 943.0244378791779 530.8891409783691Q937.5076789648107 534.6600901097087 935.459262152725 540.549288444455L935.459262152725 540.549288444455Q934.9704354134773 542.1787109086141 933.5039551957341 542.1787109086141L933.5039551957341 542.1787109086141L922.9359866424738 542.1787109086141Q921.050512076804 542.1787109086141 921.2134543232199 540.549288444455L921.2134543232199 540.549288444455Q922.5169922945472 529.1666086591151 932.0141975142172 522.2997568458734Q941.5114027338873 515.4096275688578 956.408979549056 515.4096275688578L956.408979549056 515.4096275688578Q975.8922167276439 515.4096275688578 986.2739655707145 525.0232201073964Q996.6789918775589 534.6600901097087 996.6789918775589 552.234575258853L996.6789918775589 552.234575258853L996.6789918775589 605.9356841847814Q996.6789918775589 607.5651066489406 994.956459558305 607.5651066489406L994.956459558305 607.5651066489406L985.7851388314668 607.5651066489406Q984.1557163673077 607.5651066489406 983.899664265797 605.9356841847814L983.899664265797 605.9356841847814L982.4331840480539 596.6712536028483Q981.4555305695585 598.2308436756864 978.1035757861455 600.977584400983Q974.7283435389588 603.7243251262798 971.3763887555458 605.4468574455336L971.3763887555458 605.4468574455336Q962.5542299853131 610.102350200274 951.4043248377102 610.102350200274L951.4043248377102 610.102350200274Q935.1333776598932 610.102350200274 925.6827273677706 602.4440646187263ZM931.2925961372325 581.6340120050374L931.2925961372325 581.6340120050374Q931.2925961372325 589.8044017896066 936.7162451965048 594.064177660194Q942.163171719551 598.3239535307812 952.2423135335636 598.3239535307812L952.2423135335636 598.3239535307812Q957.6426851290622 598.3239535307812 962.6706173041816 596.4850338926587Q967.698549479301 594.6461142545363 970.9341169438455 592.1321481669768Q974.1696844083899 589.6414595431906 976.7069279597233 587.0343836005361Q979.2441715110568 584.4040301941079 980.4313221635156 582.6349429473066Q981.6184728159743 580.889133164279 981.6184728159743 580.726190917863L981.6184728159743 580.726190917863L981.6184728159743 564.8509606241989L953.0570247656431 564.8509606241989Q931.2925961372325 564.8509606241989 931.2925961372325 581.6340120050374ZM1065.370787473751 610.102350200274Q1045.7711629762946 610.102350200274 1033.7832691328385 597.7885718639861Q1021.7953752893825 585.4747935276982 1021.7953752893825 562.59304663815Q1021.7953752893825 539.7345772123755 1033.7832691328385 527.5604636587298Q1045.7711629762946 515.4096275688578 1065.370787473751 515.4096275688578Q1084.9704119712073 515.4096275688578 1096.9583058146634 527.5604636587298Q1108.9461996581194 539.7345772123755 1108.9461996581194 562.59304663815Q1108.9461996581194 585.4747935276982 1096.9583058146634 597.7885718639861Q1084.9704119712073 610.102350200274 1065.370787473751 610.102350200274ZM1065.370787473751 527.1181918470295Q1052.6380147895363 527.1181918470295 1044.7469545702518 536.0101830085833Q1036.855894350967 544.8788967063634 1036.855894350967 562.5464917106026Q1036.855894350967 580.2373641786155 1044.7469545702518 589.2690201228115Q1052.6380147895363 598.3239535307812 1065.370787473751 598.3239535307812Q1078.1035601579654 598.3239535307812 1085.9946203772502 589.2690201228115Q1093.8856805965347 580.2373641786155 1093.8856805965347 562.5464917106026Q1093.8856805965347 544.8788967063634 1085.9946203772502 536.0101830085833Q1078.1035601579654 527.1181918470295 1065.370787473751 527.1181918470295ZM1135.7851153891968 605.9356841847814L1135.7851153891968 605.9356841847814L1135.7851153891968 519.5995710481241Q1135.7851153891968 517.8770387288702 1137.4145378533558 517.8770387288702L1137.4145378533558 517.8770387288702L1146.6789684352889 517.8770387288702Q1148.308390899448 517.8770387288702 1148.4713331458638 519.5995710481241L1148.4713331458638 519.5995710481241L1150.030923218702 528.7476143111885Q1150.5197499579497 528.2587875719408 1151.3810161175766 527.3742439485402Q1152.2422822772035 526.4664228613658 1154.9890230025003 524.0921215564483Q1157.7124862640233 521.7178202515308 1160.7385565546044 519.995287932277L1160.7385565546044 519.995287932277Q1168.6063393101153 515.4096275688578 1178.1035445297855 515.4096275688578Q1187.6007497494554 515.4096275688578 1194.956428301945 519.995287932277Q1202.3121068544347 524.5809482956961 1206.176165840869 533.0073901817759L1206.176165840869 533.0073901817759Q1208.5504671457863 529.492493151947 1211.9722543205205 526.0474285134392Q1215.4173189590283 522.6256413387052 1222.447113018686 519.0176344537815Q1229.5001845421175 515.4096275688578 1237.1817475874388 515.4096275688578L1237.1817475874388 515.4096275688578Q1252.0793244026077 515.4096275688578 1260.9480381003877 525.442214455323Q1269.8400292619415 535.4748013417882 1269.8400292619415 553.9571075781068L1269.8400292619415 553.9571075781068L1269.8400292619415 605.9356841847814Q1269.8400292619415 607.5651066489406 1268.1873293340086 607.5651066489406L1268.1873293340086 607.5651066489406L1256.408932664516 607.5651066489406Q1254.779510200357 607.5651066489406 1254.779510200357 605.9356841847814L1254.779510200357 605.9356841847814L1254.779510200357 553.9571075781068Q1254.779510200357 540.7122306908709 1249.5886357788215 533.9152112689503Q1244.3744838935127 527.1181918470295 1237.018805341023 527.1181918470295Q1229.6631267885334 527.1181918470295 1223.1919918594444 531.6572972829013Q1216.7208569303557 536.196402718773 1213.5318443933586 540.2234039516231Q1210.3428318563615 544.2271277206999 1210.3428318563615 544.7159544599476L1210.3428318563615 544.7159544599476L1210.3428318563615 605.9356841847814Q1210.3428318563615 607.5651066489406 1208.7134093922025 607.5651066489406L1208.7134093922025 607.5651066489406L1196.911735258936 607.5651066489406Q1195.2823127947768 607.5651066489406 1195.2823127947768 605.9356841847814L1195.2823127947768 605.9356841847814L1195.2823127947768 553.9571075781068Q1195.2823127947768 540.7122306908709 1190.0914383732415 533.9152112689503Q1184.900563951706 527.1181918470295 1177.521607935443 527.1181918470295Q1170.1659293829534 527.1181918470295 1163.6947944538645 531.6572972829013Q1157.2236595247755 536.196402718773 1154.0346469877784 540.2234039516231Q1150.8456344507815 544.2271277206999 1150.8456344507815 544.7159544599476L1150.8456344507815 544.7159544599476L1150.8456344507815 605.9356841847814Q1150.8456344507815 607.5651066489406 1149.2162119866223 607.5651066489406L1149.2162119866223 607.5651066489406L1137.4145378533558 607.5651066489406Q1135.7851153891968 607.5651066489406 1135.7851153891968 605.9356841847814ZM1300.0308997764319 504.4459421314446L1300.0308997764319 493.5753665491262Q1300.0308997764319 490.22341176571325 1303.3828545598449 490.22341176571325L1303.3828545598449 490.22341176571325L1314.276707605937 490.22341176571325Q1316.1621821716067 490.22341176571325 1316.8837835485915 490.99156807024536Q1317.6286623893498 491.7597243747775 1317.6286623893498 493.5753665491262L1317.6286623893498 493.5753665491262L1317.6286623893498 504.4459421314446Q1317.6286623893498 506.33141669711443 1316.8837835485915 507.07629553787285Q1316.1621821716067 507.7978969148576 1314.276707605937 507.7978969148576L1314.276707605937 507.7978969148576L1303.3828545598449 507.7978969148576Q1301.59048984927 507.7978969148576 1300.799056080964 507.07629553787285Q1300.0308997764319 506.33141669711443 1300.0308997764319 504.4459421314446L1300.0308997764319 504.4459421314446ZM1301.264605356438 605.9356841847814L1301.264605356438 605.9356841847814L1301.264605356438 519.5995710481241Q1301.264605356438 517.8770387288702 1302.894027820597 517.8770387288702L1302.894027820597 517.8770387288702L1314.6025920987686 517.8770387288702Q1316.3251244180226 517.8770387288702 1316.3251244180226 519.5995710481241L1316.3251244180226 519.5995710481241L1316.3251244180226 605.9356841847814Q1316.3251244180226 607.5651066489406 1314.6025920987686 607.5651066489406L1314.6025920987686 607.5651066489406L1302.894027820597 607.5651066489406Q1301.264605356438 607.5651066489406 1301.264605356438 605.9356841847814ZM1343.6528668883477 529.6554353983629L1341.1156233370143 491.9226666211934Q1341.1156233370143 490.29324415703434 1342.838155656268 490.22341176571325L1342.838155656268 490.22341176571325L1354.5234424706662 490.22341176571325Q1356.176142398599 490.22341176571325 1356.2459747899202 491.9226666211934L1356.2459747899202 491.9226666211934L1353.7087312385866 529.6554353983629Q1353.7087312385866 531.284857862522 1352.0793087744275 531.284857862522L1352.0793087744275 531.284857862522L1345.3753992076017 531.284857862522Q1343.7226992796689 531.284857862522 1343.6528668883477 529.6554353983629L1343.6528668883477 529.6554353983629ZM1370.654724865841 583.5893189620283L1370.654724865841 583.5893189620283Q1370.5616150107462 583.1703246141017 1370.5616150107462 582.9375499763648L1370.5616150107462 582.9375499763648Q1370.5616150107462 581.6340120050374 1372.377257185095 581.6340120050374L1372.377257185095 581.6340120050374L1382.9219482745814 581.6340120050374Q1383.9228792168506 581.6340120050374 1384.9703650866672 583.2634344691965L1384.9703650866672 583.2634344691965Q1393.326974581426 598.3239535307812 1414.2766919777569 598.3239535307812L1414.2766919777569 598.3239535307812Q1426.1481985023445 598.3239535307812 1431.9442869819961 594.8090565009522Q1437.7636529254212 591.2708820073497 1437.7636529254212 585.9636202669458Q1437.7636529254212 580.6330810627683 1433.7832066201183 577.234571351808Q1429.8260377785894 573.8593391046213 1420.1658903125033 571.554870191025L1420.1658903125033 571.554870191025L1399.2161729161724 566.4803830883582Q1372.377257185095 559.939415767948 1372.377257185095 540.549288444455L1372.377257185095 540.549288444455Q1372.377257185095 529.492493151947 1382.3632891440125 522.4626990922893Q1392.3493211029304 515.4096275688578 1409.760864005659 515.4096275688578Q1427.1956843721612 515.4096275688578 1437.9265951718373 522.6256413387052Q1448.6342285077396 529.8183776447788 1452.0094607549265 541.8528264157824L1452.0094607549265 541.8528264157824Q1452.498287494174 543.901243227868 1450.2869284356725 543.901243227868L1450.2869284356725 543.901243227868L1439.7189598824123 543.901243227868Q1438.7413064039167 543.901243227868 1437.7636529254212 542.1787109086141L1437.7636529254212 542.1787109086141Q1429.4070434306625 527.1181918470295 1410.1100259622642 527.1181918470295L1410.1100259622642 527.1181918470295Q1398.8902884233405 527.1181918470295 1393.16403233501 530.7261987319532Q1387.4377762466795 534.3342056168768 1387.4377762466795 539.5949124297333Q1387.4377762466795 544.8788967063634 1391.3949450882087 548.2308514897763Q1395.3753913935116 551.5828062731894 1405.0355388595974 553.9571075781068L1405.0355388595974 553.9571075781068L1425.9852562559286 558.9617622894526Q1452.824171987006 565.3397873634467 1452.824171987006 584.9859667884505L1452.824171987006 584.9859667884505Q1452.824171987006 596.0194846171848 1442.6751977816723 603.0725561406161Q1432.5262235763387 610.102350200274 1414.2766919777569 610.102350200274Q1396.0271603791753 610.102350200274 1385.0169200142145 602.9794462855214Q1374.006679649254 595.8565423707689 1370.654724865841 583.5893189620283ZM1528.1965996862502 605.9356841847814L1528.1965996862502 605.9356841847814L1528.1965996862502 491.9226666211934Q1528.1965996862502 490.22341176571325 1529.826022150409 490.22341176571325L1529.826022150409 490.22341176571325L1574.2627004944045 490.22341176571325Q1594.7235911514879 490.22341176571325 1605.4312244873904 498.5101888691508Q1616.1621352870666 506.82024343636215 1616.1621352870666 522.1368145994575L1616.1621352870666 522.1368145994575Q1616.1621352870666 530.9589733696902 1611.1342031119473 537.9189350380268Q1606.082993473054 544.8788967063634 1596.0271291228153 547.253198011281L1596.0271291228153 547.253198011281Q1609.7841102130726 549.5343894611037 1616.3250775334825 557.1228426513303Q1622.8660448538924 564.688018377783 1622.8660448538924 574.9068249744378L1622.8660448538924 574.9068249744378Q1622.8660448538924 590.6191130216862 1612.2282439093112 599.0921098353133Q1601.5904429647296 607.5651066489406 1580.9666100612305 607.5651066489406L1580.9666100612305 607.5651066489406L1529.826022150409 607.5651066489406Q1528.1965996862502 607.5651066489406 1528.1965996862502 605.9356841847814ZM1580.9666100612305 595.8565423707689Q1607.8055257923081 595.8565423707689 1607.8055257923081 574.9068249744378Q1607.8055257923081 553.9571075781068 1580.9666100612305 553.9571075781068L1580.9666100612305 553.9571075781068L1543.233841284061 553.9571075781068L1543.233841284061 595.8565423707689L1580.9666100612305 595.8565423707689ZM1543.233841284061 502.001808435206L1543.233841284061 542.1787109086141L1575.8921229585637 542.1787109086141Q1587.5075773816404 542.1787109086141 1594.3045968035613 537.0576688783999Q1601.101616225482 531.9599043119593 1601.101616225482 522.0902596719101Q1601.101616225482 512.2206150318608 1594.0718221658242 507.12285046542024Q1587.018750642393 502.001808435206 1574.2627004944045 502.001808435206L1574.2627004944045 502.001808435206L1543.233841284061 502.001808435206ZM1685.2263703036379 610.2652924466897Q1666.9768387050563 610.2652924466897 1654.9889448616002 597.858404255307Q1643.001051018144 585.4747935276982 1643.001051018144 562.59304663815Q1643.001051018144 539.7345772123755 1654.9889448616002 527.5604636587298Q1666.9768387050563 515.4096275688578 1686.3204111010018 515.4096275688578Q1705.687260960721 515.4096275688578 1717.931206905688 527.8165157602405Q1730.151875386881 540.2234039516231 1730.151875386881 560.6842946087065L1730.151875386881 560.6842946087065L1730.151875386881 564.8509606241989Q1730.151875386881 568.202915407612 1726.799920603468 568.202915407612L1726.799920603468 568.202915407612L1658.2245123261446 568.202915407612Q1659.6211601525667 583.4263767156124 1667.2328908065667 590.944997514518Q1674.8446214605672 598.4868957771971 1686.529908274965 598.4868957771971L1686.529908274965 598.4868957771971Q1705.0354919750573 598.4868957771971 1713.3688240060426 583.4263767156124L1713.3688240060426 583.4263767156124Q1714.3697549483115 581.7969542514534 1715.4172408181282 581.7969542514534L1715.4172408181282 581.7969542514534L1725.9852093713885 581.7969542514534Q1728.1034585747952 581.7969542514534 1727.6146318355475 583.7522612084442L1727.6146318355475 583.7522612084442Q1724.2626770521344 595.8565423707689 1713.880928209064 603.0725561406161Q1703.4759019022197 610.2652924466897 1685.2263703036379 610.2652924466897ZM1658.2245123261446 556.4245187381192L1658.2245123261446 556.4245187381192L1715.0913563252964 556.4245187381192Q1714.3697549483115 543.2494742422043 1706.1062553086479 535.1721943127301Q1697.81947820521 527.1181918470295 1686.4135209560966 527.1181918470295Q1675.007563706983 527.1181918470295 1667.3027231978879 534.5669802546138Q1659.6211601525667 542.0157686621983 1658.2245123261446 556.4245187381192ZM1759.737531843255 602.4440646187263Q1750.2868815511322 594.8090565009522 1750.2868815511322 581.5874570774902Q1750.2868815511322 568.3658576540279 1759.9935839447658 560.7075720724802Q1769.6770088746255 553.0725639547063 1787.1118292411277 553.0725639547063L1787.1118292411277 553.0725639547063L1815.673277291459 553.0725639547063L1815.673277291459 552.234575258853Q1815.673277291459 527.1181918470295 1790.4637840245405 527.1181918470295L1790.4637840245405 527.1181918470295Q1782.6192787328034 527.1181918470295 1777.0792423546625 530.8891409783691Q1771.5624834402954 534.6600901097087 1769.5140666282093 540.549288444455L1769.5140666282093 540.549288444455Q1769.0252398889618 542.1787109086141 1767.5587596712187 542.1787109086141L1767.5587596712187 542.1787109086141L1756.9907911179582 542.1787109086141Q1755.1053165522885 542.1787109086141 1755.2682587987044 540.549288444455L1755.2682587987044 540.549288444455Q1756.5950742338057 529.1666086591151 1766.0690019897017 522.2997568458734Q1775.566207209372 515.4096275688578 1790.4637840245405 515.4096275688578L1790.4637840245405 515.4096275688578Q1809.947021203128 515.4096275688578 1820.328770046199 525.0232201073964Q1830.7337963530433 534.6600901097087 1830.7337963530433 552.234575258853L1830.7337963530433 552.234575258853L1830.7337963530433 605.9356841847814Q1830.7337963530433 607.5651066489406 1829.0112640337895 607.5651066489406L1829.0112640337895 607.5651066489406L1819.8399433069515 607.5651066489406Q1818.2105208427922 607.5651066489406 1817.9544687412815 605.9356841847814L1817.9544687412815 605.9356841847814L1816.4879885235384 596.6712536028483Q1815.510335045043 598.2308436756864 1812.1583802616299 600.977584400983Q1808.8064254782169 603.7243251262798 1805.4311932310304 605.4468574455336L1805.4311932310304 605.4468574455336Q1796.6090344607976 610.102350200274 1785.4824067769684 610.102350200274L1785.4824067769684 610.102350200274Q1769.1881821353777 610.102350200274 1759.737531843255 602.4440646187263ZM1765.3474006127171 581.6340120050374L1765.3474006127171 581.6340120050374Q1765.3474006127171 589.8044017896066 1770.7943271357633 594.064177660194Q1776.2179761950354 598.3239535307812 1786.297118009048 598.3239535307812L1786.297118009048 598.3239535307812Q1791.697489604547 598.3239535307812 1796.7254217796662 596.4850338926587Q1801.7533539547856 594.6461142545363 1804.98892141933 592.1321481669768Q1808.2244888838743 589.6414595431906 1810.761732435208 587.0343836005361Q1813.298975986541 584.4040301941079 1814.486126639 582.6349429473066Q1815.673277291459 580.889133164279 1815.673277291459 580.726190917863L1815.673277291459 580.726190917863L1815.673277291459 564.8509606241989L1787.1118292411277 564.8509606241989Q1765.3474006127171 564.8509606241989 1765.3474006127171 581.6340120050374ZM1860.924666867534 570.6470491038506L1860.924666867534 570.6470491038506L1860.924666867534 519.5995710481241Q1860.924666867534 517.9468711201912 1862.5540893316927 517.8770387288702L1862.5540893316927 517.8770387288702L1874.3557634649594 517.8770387288702Q1875.9851859291182 517.8770387288702 1875.9851859291182 519.5995710481241L1875.9851859291182 519.5995710481241L1875.9851859291182 570.6470491038506Q1875.9851859291182 583.9152034548601 1882.8520377423604 591.1079397609337Q1889.742167019376 598.3239535307812 1900.2868581088626 598.3239535307812L1900.2868581088626 598.3239535307812Q1905.128570573792 598.3239535307812 1909.8306182560798 596.4850338926587Q1914.5326659383675 594.6461142545363 1917.6285686202698 592.1321481669768Q1920.7477487659455 589.6414595431906 1923.1918824621841 587.0343836005361L1923.1918824621841 587.0343836005361Q1927.940485072019 581.8667866427745 1927.940485072019 580.726190917863L1927.940485072019 580.726190917863L1927.940485072019 519.5995710481241Q1927.940485072019 517.9468711201912 1929.5931849999522 517.8770387288702L1929.5931849999522 517.8770387288702L1941.371581669445 517.8770387288702Q1943.0010041336038 517.8770387288702 1943.0010041336038 519.5995710481241L1943.0010041336038 519.5995710481241L1943.0010041336038 605.9356841847814Q1943.0010041336038 607.5651066489406 1941.371581669445 607.5651066489406L1941.371581669445 607.5651066489406L1932.1304285512854 607.5651066489406Q1930.4777286233527 607.5651066489406 1930.314786376937 605.9356841847814L1930.314786376937 605.9356841847814L1928.7784737678724 596.6712536028483Q1927.7077104342823 598.3239535307812 1924.4721429697377 601.0241393285305Q1921.2365755051935 603.7243251262798 1918.1406728232912 605.4468574455336L1918.1406728232912 605.4468574455336Q1909.9470055749482 610.102350200274 1899.4721468767827 610.102350200274L1899.4721468767827 610.102350200274Q1882.5261532495285 610.102350200274 1871.7254100585312 599.5809365745611Q1860.924666867534 589.0595229488481 1860.924666867534 570.6470491038506ZM1976.5671068952809 573.184292655184L1976.5671068952809 573.184292655184L1976.5671068952809 491.9226666211934Q1976.5671068952809 490.22341176571325 1978.19652935944 490.22341176571325L1978.19652935944 490.22341176571325L1989.974926028933 490.22341176571325Q1991.6276259568656 490.22341176571325 1991.6276259568656 491.9226666211934L1991.6276259568656 491.9226666211934L1991.6276259568656 517.8770387288702L2025.8222202404324 517.8770387288702Q2027.4516427045917 517.8770387288702 2027.4516427045917 519.5995710481241L2027.4516427045917 519.5995710481241L2027.4516427045917 527.9329030791091Q2027.4516427045917 529.6554353983629 2025.8222202404324 529.6554353983629L2025.8222202404324 529.6554353983629L1991.6276259568656 529.6554353983629L1991.6276259568656 573.184292655184Q1991.6276259568656 585.6377357741142 1997.3771595089695 591.9692059205609Q2003.1499705248477 598.3239535307812 2013.392054585276 598.3239535307812L2013.392054585276 598.3239535307812Q2022.3771556019249 598.3239535307812 2029.5000595166773 595.8565423707689L2029.5000595166773 595.8565423707689L2031.8743608215948 594.9719987473682Q2033.5270607495274 594.2969522979308 2033.5270607495274 596.3453691100167L2033.5270607495274 596.3453691100167L2033.5270607495274 604.5390363583595Q2033.5270607495274 605.9356841847814 2031.8743608215948 606.750395416861L2031.8743608215948 606.750395416861Q2023.447918935515 610.102350200274 2011.7393546573433 610.102350200274L2011.7393546573433 610.102350200274Q1995.6313497259418 610.102350200274 1986.0875895787246 599.9533759949402Q1976.5671068952809 589.8044017896066 1976.5671068952809 573.184292655184ZM2058.224449813424 573.0213504087681L2039.649033722011 519.5995710481241Q2039.4860914755948 519.2736865552922 2039.4860914755948 518.9478020624604L2039.4860914755948 518.9478020624604Q2039.4860914755948 517.8770387288702 2040.9525716933383 517.8770387288702L2040.9525716933383 517.8770387288702L2052.2654190873573 517.8770387288702Q2054.2207260443483 517.8770387288702 2054.7095527835954 519.5995710481241L2054.7095527835954 519.5995710481241L2073.378078730104 573.184292655184Q2077.0559180063483 583.5893189620283 2081.804520616184 588.0585920065789Q2086.553123226019 592.5045875873559 2094.816622865683 592.5045875873559L2094.816622865683 592.5045875873559L2114.0438079427595 519.5995710481241Q2114.5326346820075 517.8770387288702 2116.581051494093 517.8770387288702L2116.581051494093 517.8770387288702L2127.8007890330173 517.8770387288702Q2129.3371016420815 517.8770387288702 2129.3371016420815 518.9478020624604L2129.3371016420815 518.9478020624604Q2129.3371016420815 519.2736865552922 2129.174159395665 519.5995710481241L2129.174159395665 519.5995710481241L2106.8510716366864 604.2131518655276Q2102.1723014181725 621.8109144784455 2094.4441834453037 629.7718070890514Q2086.716065472435 637.7559771634308 2074.1927899621833 637.7559771634308L2074.1927899621833 637.7559771634308Q2065.4404635832716 637.7559771634308 2058.0615075670084 635.2187336120974L2058.0615075670084 635.2187336120974L2055.780316117186 634.404022380018Q2054.0577837979317 633.4962012928436 2054.0577837979317 632.1926633215164L2054.0577837979317 632.1926633215164L2054.0577837979317 624.0222735369473Q2054.0577837979317 621.9738567248614 2055.780316117186 622.6256257105251L2055.780316117186 622.6256257105251Q2064.113648148171 625.9775804939381 2072.1909280776454 625.9775804939381Q2080.2449305433456 625.9775804939381 2084.5047064139335 621.322087739198Q2088.7644822845205 616.6433175206839 2091.790552575101 604.2131518655276L2091.790552575101 604.2131518655276Q2078.685340470508 604.2131518655276 2071.492604164434 597.3463000522856Q2064.2765903945865 590.4561707752703 2058.224449813424 573.0213504087681L2058.224449813424 573.0213504087681ZM2191.4646524540894 577.2112938880343L2191.4646524540894 577.2112938880343Q2191.4646524540894 575.7215362065174 2193.1871847733437 575.7215362065174L2193.1871847733437 575.7215362065174L2203.7318758628307 575.7215362065174Q2205.198356080574 575.7215362065174 2205.7802926749155 577.3742361344503L2205.7802926749155 577.3742361344503Q2212.810086734574 598.3239535307812 2241.627586886416 598.3239535307812L2241.627586886416 598.3239535307812Q2256.688105948 598.3239535307812 2264.648998558606 592.9468593990562Q2272.633168632985 587.593042731105 2272.633168632985 579.655427584273Q2272.633168632985 571.7178124374409 2267.6052364578663 566.8528225087373Q2262.577304282747 561.9878325800337 2251.8463934830706 558.9617622894526L2251.8463934830706 558.9617622894526L2222.4702342006594 550.6051527946939Q2194.001896005423 542.4347630101248 2194.001896005423 519.5995710481241L2194.001896005423 519.5995710481241Q2194.001896005423 505.5167054650349 2205.989789848879 496.6479917672547Q2217.9776836923356 487.75600060570093 2238.112689856587 487.75600060570093Q2258.2244185570644 487.75600060570093 2270.631306748447 496.391939665744Q2283.0381949398297 505.02787872578716 2286.227207476827 520.0883977873718L2286.227207476827 520.0883977873718Q2286.5530919696585 522.1368145994575 2284.504675157573 522.1368145994575L2284.504675157573 522.1368145994575L2273.9367066043123 522.1368145994575Q2272.4702263865693 522.1368145994575 2271.911567256001 520.4142822802036L2271.911567256001 520.4142822802036Q2264.8584957325693 499.4645648838726 2238.4385743494186 499.4645648838726L2238.4385743494186 499.4645648838726Q2224.518651012745 499.4645648838726 2216.790533039876 504.81838155182385Q2209.0624150670074 510.1721982197751 2209.0624150670074 518.2494781492494Q2209.0624150670074 526.30348061495 2214.090347242127 530.9589733696902Q2219.1182794172464 535.6377435882041 2230.0121324633383 538.8267561252012L2230.0121324633383 538.8267561252012L2259.3882917457495 547.253198011281Q2287.69368769457 555.2839230132079 2287.69368769457 578.2587797578508L2287.69368769457 578.2587797578508Q2287.69368769457 592.5045875873559 2275.379909358282 601.3034688938149Q2263.066131021994 610.102350200274 2241.627586886416 610.102350200274Q2220.189042750837 610.102350200274 2207.409715139075 601.5129660677783L2207.409715139075 601.5129660677783Q2201.0316900650805 597.2531901971909 2196.2365325276987 590.6656679492335Q2191.4646524540894 584.0781457012761 2191.4646524540894 577.2112938880343ZM2312.8100711063935 605.9356841847814L2312.8100711063935 605.9356841847814L2312.8100711063935 491.9226666211934Q2312.8100711063935 490.22341176571325 2314.4627710343266 490.22341176571325L2314.4627710343266 490.22341176571325L2326.241167703819 490.22341176571325Q2327.8705901679778 490.22341176571325 2327.8705901679778 491.9226666211934L2327.8705901679778 491.9226666211934L2327.8705901679778 527.9329030791091Q2328.5223591536414 526.9552496006136 2331.897591400828 524.1852314115431Q2335.249546184242 521.391935758699 2338.3454488661437 519.6694034394452L2338.3454488661437 519.6694034394452Q2346.283064012976 515.4096275688578 2356.3622058269884 515.4096275688578L2356.3622058269884 515.4096275688578Q2373.2849219904692 515.4096275688578 2384.0856651814665 525.8844862670232Q2394.9096858362373 536.3593449651888 2394.9096858362373 554.7718188101865L2394.9096858362373 554.7718188101865L2394.9096858362373 605.9356841847814Q2394.9096858362373 607.5651066489406 2393.256985908304 607.5651066489406L2393.256985908304 607.5651066489406L2381.4785892388118 607.5651066489406Q2379.849166774653 607.5651066489406 2379.849166774653 605.9356841847814L2379.849166774653 605.9356841847814L2379.849166774653 554.7718188101865Q2379.849166774653 541.5269419229505 2372.959037497637 534.3342056168768Q2366.092185684395 527.1181918470295 2355.547494594909 527.1181918470295L2355.547494594909 527.1181918470295Q2348.168538578646 527.1181918470295 2341.2085769103087 531.215025471201Q2334.2486152419724 535.3118590953723 2331.059602704975 538.8965885165223Q2327.8705901679778 542.504595401446 2327.8705901679778 543.0865319957884L2327.8705901679778 543.0865319957884L2327.8705901679778 605.9356841847814Q2327.8705901679778 607.5651066489406 2326.241167703819 607.5651066489406L2326.241167703819 607.5651066489406L2314.4627710343266 607.5651066489406Q2312.8100711063935 607.5651066489406 2312.8100711063935 605.9356841847814ZM2463.671313823751 610.102350200274Q2444.0716893262943 610.102350200274 2432.0837954828376 597.7885718639861Q2420.0959016393817 585.4747935276982 2420.0959016393817 562.59304663815Q2420.0959016393817 539.7345772123755 2432.0837954828376 527.5604636587298Q2444.0716893262943 515.4096275688578 2463.671313823751 515.4096275688578Q2483.270938321207 515.4096275688578 2495.2588321646626 527.5604636587298Q2507.2467260081194 539.7345772123755 2507.2467260081194 562.59304663815Q2507.2467260081194 585.4747935276982 2495.2588321646626 597.7885718639861Q2483.270938321207 610.102350200274 2463.671313823751 610.102350200274ZM2463.671313823751 527.1181918470295Q2450.9618186033094 527.1181918470295 2443.0474809202515 536.0101830085833Q2435.156420700967 544.8788967063634 2435.156420700967 562.5464917106026Q2435.156420700967 580.2373641786155 2443.0474809202515 589.2690201228115Q2450.9618186033094 598.3239535307812 2463.671313823751 598.3239535307812Q2476.404086507965 598.3239535307812 2484.2951467272496 589.2690201228115Q2492.2094844103076 580.2373641786155 2492.2094844103076 562.5464917106026Q2492.2094844103076 544.8788967063634 2484.2951467272496 536.0101830085833Q2476.404086507965 527.1181918470295 2463.671313823751 527.1181918470295ZM2534.1089192029704 633.4962012928436L2534.1089192029704 633.4962012928436L2534.1089192029704 519.5995710481241Q2534.1089192029704 517.9468711201912 2535.738341667129 517.8770387288702L2535.738341667129 517.8770387288702L2544.979494785289 517.8770387288702Q2546.632194713221 517.8770387288702 2546.7951369596376 519.5995710481241L2546.7951369596376 519.5995710481241L2548.331449568702 528.7476143111885Q2549.2392706558758 527.3742439485402 2552.47483812042 524.5343933681486Q2555.710405584965 521.7178202515308 2558.643366020451 519.995287932277L2558.643366020451 519.995287932277Q2566.255096674451 515.4096275688578 2576.008353995632 515.4096275688578L2576.008353995632 515.4096275688578Q2593.9320011013824 515.4096275688578 2605.5009005969114 527.5604636587298Q2617.0698000924403 539.7345772123755 2617.0698000924403 562.6396015656974Q2617.0698000924403 585.5446259190194 2605.175016104079 597.8351267915334Q2593.2569546519444 610.102350200274 2574.285821676378 610.102350200274L2574.285821676378 610.102350200274Q2567.907796602384 610.102350200274 2561.6461588472584 608.8220896927203Q2555.3845210921327 607.5651066489406 2552.1955085551353 606.2615686776132L2552.1955085551353 606.2615686776132L2549.146160800781 605.027863097607L2549.146160800781 633.4962012928436Q2549.146160800781 635.1489012207765 2547.5167383366215 635.2187336120974L2547.5167383366215 635.2187336120974L2535.738341667129 635.2187336120974Q2534.1089192029704 635.1489012207765 2534.1089192029704 633.4962012928436ZM2549.146160800781 544.7159544599476L2549.146160800781 593.3192988194355Q2560.040013846873 598.3239535307812 2572.9822837050506 598.3239535307812Q2585.9012760994547 598.3239535307812 2593.9320011013824 589.4319623692274Q2601.939448639535 580.5632486714471 2601.939448639535 562.8723762034344Q2601.939448639535 545.2047811991953 2594.583770087045 536.1731252549991Q2587.204814070782 527.1181918470295 2575.1703652997785 527.1181918470295L2575.1703652997785 527.1181918470295Q2563.4850784853807 527.1181918470295 2553.824931019295 538.4077617772746L2553.824931019295 538.4077617772746Q2549.146160800781 543.8081333727732 2549.146160800781 544.7159544599476L2549.146160800781 544.7159544599476Z " fill="#4831D" transform="matrix(0.3343434015827764,0,0,0.3343434015827764,0,111.84624312282239)"/></g></svg>